Star Wars Hexalogy
 
http://www.imdb.com/title/tt0076759/
 
http://www.imdb.com/title/tt0080684/
 
http://www.imdb.com/title/tt0086190/
 
http://www.imdb.com/title/tt0120915/
 
http://www.imdb.com/title/tt0121766/
 
http://www.imdb.com/title/tt0121765/



Source  :

Star.Wars.Episode.I.The.Phantom.Menace.1999.1080p.HDTV.x264-hV

Star.Wars.Episode.II.Attack.Of.The.Clones.2002.1080p.HDTV.x264-hV

Star.Wars.Episode.III.Revenge.Of.The.Sith.2005.1080p.HDTV.x264-hV

Star.Wars.Episode.IV.A.New.Hope.1977.1080p.HDTV.x264-hV

Star.Wars.Episode.V.The.Empire.Strikes.Back.1980.1080p.HDTV.x264-hv

Star.Wars.Episode.VI.Return.Of.The.Jedi.1983.1080p.HDTV.x264-hV


Info Episode I:

ID                               : 1
Format                           : AVC
Format/Info                      : Advanced Video Codec
Format profile                   : Baseline@L2.0
Format settings, CABAC           : No
Format settings, ReFrames        : 3 frames
Codec ID                         : avc1
Codec ID/Info                    : Advanced Video Coding
Duration                         : 2h 10mn
Bit rate mode                    : Variable
Bit rate                         : 400 Kbps
Width                            : 480 pixels
Height                           : 208 pixels
Display aspect ratio             : 2.35:1
Frame rate mode                  : Constant
Frame rate                       : 25.000 fps
Color space                      : YUV
Chroma subsampling               : 4:2:0
Bit depth                        : 8 bits
Scan type                        : Progressive
Bits/(Pixel*Frame)               : 0.160
Stream size                      : 373 MiB (75%)
Writing library                  : x264 core 79

ID                               : 2
Format                           : AAC
Format/Info                      : Advanced Audio Codec
Format version                   : Version 4
Format profile                   : LC
Format settings, SBR             : No
Codec ID                         : 40
Duration                         : 2h 10mn
Bit rate mode                    : Variable
Bit rate                         : 128 Kbps
Maximum bit rate                 : 167 Kbps
Channel(s)                       : 2 channels
Channel positions                : Front: L R
Sampling rate                    : 48.0 KHz
Stream size                      : 119 MiB (24%)
Language                         : English


Screens:
 
http://img257.imageshack.us/img257/3945/starwarsepisodeithephan.jpg
 
http://img805.imageshack.us/img805/1756/starwarsepisodeiiattack.jpg
 
http://img192.imageshack.us/img192/140/starwarsepisodeiiireveng.jpg
 
http://img411.imageshack.us/img411/2125/starwarsepisodeivanewhow.jpg
 
http://img96.imageshack.us/img96/4818/starwarsepisodevtheempiv.jpg
 
http://img341.imageshack.us/img341/338/starwarsepisodevireturn.jpg




PLEASE LET THE TORRENT SEED AND SHARE IT WITH ALL YOU KNOW!

Let me know what I can do to be your trusted source of Handheld videos.
 
http://thepiratebay.org/user/on.off.on/ -OOO